<svg width="27" height="15" viewBox="0 0 27 15" fill="none" xmlns="http://www.w3.org/2000/svg">
<path d="M0.166626 14.6667C0.348444 12.5955 1.01026 10.6888 2.15208 8.94663C3.29309 7.20449 4.81309 5.82045 6.71208 4.79452L4.46966 1.07795C4.34844 0.903737 4.31814 0.719844 4.37875 0.526272C4.43935 0.332701 4.57067 0.187522 4.77269 0.0907364C4.9343 -0.00604934 5.11612 -0.0254061 5.31814 0.0326653C5.52016 0.0907367 5.68178 0.206879 5.80299 0.381094L8.04541 4.09766C9.78279 3.40081 11.601 3.05238 13.5 3.05238C15.3989 3.05238 17.2171 3.40081 18.9545 4.09766L21.1969 0.381094C21.3181 0.206879 21.4798 0.0907367 21.6818 0.0326653C21.8838 -0.0254061 22.0656 -0.00604934 22.2272 0.0907364C22.4293 0.187522 22.5606 0.332701 22.6212 0.526272C22.6818 0.719844 22.6515 0.903737 22.5303 1.07795L20.2878 4.79452C22.1868 5.82045 23.7072 7.20449 24.8491 8.94663C25.9901 10.6888 26.6515 12.5955 26.8333 14.6667H0.166626ZM7.43935 11.4727C7.8636 11.4727 8.22238 11.3322 8.51572 11.0511C8.80824 10.7708 8.95451 10.4275 8.95451 10.021C8.95451 9.61445 8.80824 9.27106 8.51572 8.99076C8.22238 8.7097 7.8636 8.56917 7.43935 8.56917C7.01511 8.56917 6.65673 8.7097 6.3642 8.99076C6.07087 9.27106 5.9242 9.61445 5.9242 10.021C5.9242 10.4275 6.07087 10.7708 6.3642 11.0511C6.65673 11.3322 7.01511 11.4727 7.43935 11.4727ZM19.5606 11.4727C19.9848 11.4727 20.3436 11.3322 20.6369 11.0511C20.9295 10.7708 21.0757 10.4275 21.0757 10.021C21.0757 9.61445 20.9295 9.27106 20.6369 8.99076C20.3436 8.7097 19.9848 8.56917 19.5606 8.56917C19.1363 8.56917 18.7779 8.7097 18.4854 8.99076C18.1921 9.27106 18.0454 9.61445 18.0454 10.021C18.0454 10.4275 18.1921 10.7708 18.4854 11.0511C18.7779 11.3322 19.1363 11.4727 19.5606 11.4727Z" fill="white"/>
</svg>
