<svg width="21" height="25" viewBox="0 0 21 25" fill="none" xmlns="http://www.w3.org/2000/svg">
<path d="M17.2333 23.04C15.9267 24.3067 14.5 24.1067 13.1267 23.5067C11.6733 22.8933 10.34 22.8667 8.80668 23.5067C6.88668 24.3333 5.87335 24.0933 4.72668 23.04C-1.77998 16.3333 -0.819984 6.12 6.56668 5.74667C8.36668 5.84 9.62002 6.73333 10.6733 6.81333C12.2467 6.49333 13.7533 5.57333 15.4333 5.69333C17.4467 5.85333 18.9667 6.65333 19.9667 8.09333C15.8067 10.5867 16.7933 16.0667 20.6067 17.6C19.8467 19.6 18.86 21.5867 17.22 23.0533L17.2333 23.04ZM10.54 5.66667C10.34 2.69333 12.7533 0.24 15.5267 0C15.9133 3.44 12.4067 6 10.54 5.66667Z" fill="white"/>
</svg>
