<svg width="30" height="17" viewBox="0 0 30 17" fill="none" xmlns="http://www.w3.org/2000/svg">
<path d="M0.333008 16.8774C0.5302 14.631 1.24798 12.5631 2.48635 10.6737C3.72384 8.78421 5.37237 7.28314 7.43194 6.17046L4.9999 2.13962C4.86844 1.95068 4.83557 1.75123 4.9013 1.54129C4.96703 1.33135 5.10945 1.1739 5.32855 1.06893C5.50383 0.963959 5.70103 0.942966 5.92013 1.00595C6.13923 1.06893 6.31451 1.19489 6.44598 1.38384L8.87802 5.41468C10.7623 4.6589 12.7342 4.28101 14.7938 4.28101C16.8534 4.28101 18.8253 4.6589 20.7096 5.41468L23.1416 1.38384C23.2731 1.19489 23.4484 1.06893 23.6675 1.00595C23.8866 0.942966 24.0838 0.963959 24.259 1.06893C24.4781 1.1739 24.6206 1.33135 24.6863 1.54129C24.752 1.75123 24.7192 1.95068 24.5877 2.13962L22.1556 6.17046C24.2152 7.28314 25.8642 8.78421 27.1026 10.6737C28.34 12.5631 29.0574 14.631 29.2546 16.8774H0.333008ZM8.22071 13.4134C8.68082 13.4134 9.06995 13.261 9.38809 12.9561C9.70535 12.6521 9.86398 12.2797 9.86398 11.8388C9.86398 11.398 9.70535 11.0255 9.38809 10.7215C9.06995 10.4167 8.68082 10.2643 8.22071 10.2643C7.76059 10.2643 7.3719 10.4167 7.05464 10.7215C6.73651 11.0255 6.57744 11.398 6.57744 11.8388C6.57744 12.2797 6.73651 12.6521 7.05464 12.9561C7.3719 13.261 7.76059 13.4134 8.22071 13.4134ZM21.3669 13.4134C21.827 13.4134 22.2161 13.261 22.5343 12.9561C22.8515 12.6521 23.0101 12.2797 23.0101 11.8388C23.0101 11.398 22.8515 11.0255 22.5343 10.7215C22.2161 10.4167 21.827 10.2643 21.3669 10.2643C20.9068 10.2643 20.5181 10.4167 20.2008 10.7215C19.8827 11.0255 19.7236 11.398 19.7236 11.8388C19.7236 12.2797 19.8827 12.6521 20.2008 12.9561C20.5181 13.261 20.9068 13.4134 21.3669 13.4134Z" fill="#0D0C0C"/>
</svg>
