<svg width="16" height="17" viewBox="0 0 16 17" fill="none" xmlns="http://www.w3.org/2000/svg">
<path d="M9 1.20833C8.71151 0.991963 8.36062 0.875 8 0.875C7.63938 0.875 7.28849 0.991963 7 1.20833L1.16667 5.58333C0.959673 5.73858 0.791668 5.93988 0.675955 6.17131C0.560242 6.40274 0.5 6.65792 0.5 6.91667V14.8333C0.5 15.2754 0.675595 15.6993 0.988155 16.0118C1.30072 16.3244 1.72464 16.5 2.16667 16.5H5.41667C5.65978 16.5 5.89294 16.4034 6.06485 16.2315C6.23676 16.0596 6.33333 15.8264 6.33333 15.5833V11.5C6.33333 11.058 6.50893 10.634 6.82149 10.3215C7.13405 10.0089 7.55797 9.83333 8 9.83333C8.44203 9.83333 8.86595 10.0089 9.17851 10.3215C9.49107 10.634 9.66667 11.058 9.66667 11.5V15.5833C9.66667 15.8264 9.76324 16.0596 9.93515 16.2315C10.1071 16.4034 10.3402 16.5 10.5833 16.5H13.8333C14.2754 16.5 14.6993 16.3244 15.0118 16.0118C15.3244 15.6993 15.5 15.2754 15.5 14.8333V6.91667C15.5 6.65792 15.4398 6.40274 15.324 6.17131C15.2083 5.93988 15.0403 5.73858 14.8333 5.58333L9 1.20833Z" fill="white"/>
</svg>
