<svg width="12" height="15" viewBox="0 0 12 15" fill="none" xmlns="http://www.w3.org/2000/svg">
<path d="M9.82508 5.5H8.50008V1.33333C8.50008 0.875 8.12508 0.5 7.66675 0.5H4.33341C3.87508 0.5 3.50008 0.875 3.50008 1.33333V5.5H2.17508C1.43341 5.5 1.05841 6.4 1.58341 6.925L5.40841 10.75C5.73341 11.075 6.25841 11.075 6.58341 10.75L10.4084 6.925C10.9334 6.4 10.5667 5.5 9.82508 5.5ZM0.166748 13.8333C0.166748 14.2917 0.541748 14.6667 1.00008 14.6667H11.0001C11.4584 14.6667 11.8334 14.2917 11.8334 13.8333C11.8334 13.375 11.4584 13 11.0001 13H1.00008C0.541748 13 0.166748 13.375 0.166748 13.8333Z" fill="#0D0C0C"/>
</svg>
