<svg width="80" height="50" viewBox="0 0 80 50" fill="none" xmlns="http://www.w3.org/2000/svg">
<g clip-path="url(#clip0_102_6775)">
<rect width="80" height="50" rx="12" fill="white" fill-opacity="0.25"/>
<path d="M31.3332 36.8421C30.5998 36.8421 29.9718 36.5842 29.4492 36.0684C28.9265 35.5526 28.6656 34.9333 28.6665 34.2105V15.7895C28.6665 15.0658 28.9278 14.4461 29.4505 13.9303C29.9732 13.4145 30.6007 13.157 31.3332 13.1579H49.9998C50.7332 13.1579 51.3612 13.4158 51.8838 13.9316C52.4065 14.4474 52.6674 15.0667 52.6665 15.7895V34.2105C52.6665 34.9342 52.4052 35.554 51.8825 36.0697C51.3598 36.5855 50.7323 36.843 49.9998 36.8421H31.3332ZM32.6665 31.579H48.6665L43.6665 25L39.6665 30.2632L36.6665 26.3158L32.6665 31.579Z" fill="white"/>
</g>
<defs>
<clipPath id="clip0_102_6775">
<rect width="80" height="50" fill="white"/>
</clipPath>
</defs>
</svg>
