<svg width="20" height="20" viewBox="0 0 20 20" fill="none" xmlns="http://www.w3.org/2000/svg">
<path d="M9.375 2.5V5.87167C8.90553 5.42239 8.27958 5.17356 7.62979 5.1779C6.98 5.18225 6.35743 5.43942 5.89401 5.89493C5.43059 6.35044 5.16274 6.96849 5.14721 7.61811C5.13169 8.26773 5.36971 8.89787 5.81083 9.375H1.25V4.375C1.25 3.87772 1.44754 3.40081 1.79917 3.04917C2.15081 2.69754 2.62772 2.5 3.125 2.5H9.375ZM10.625 2.5V5.8425C11.0997 5.40562 11.7248 5.16914 12.3698 5.1825C13.0148 5.19587 13.6296 5.45804 14.0858 5.9142C14.542 6.37037 14.8041 6.98521 14.8175 7.63018C14.8309 8.27516 14.5944 8.90033 14.1575 9.375H18.75V4.375C18.75 3.87772 18.5525 3.40081 18.2008 3.04917C17.8492 2.69754 17.3723 2.5 16.875 2.5H10.625ZM18.75 10.625H11.2642C11.3421 11.479 11.7365 12.2731 12.3699 12.8513C13.0033 13.4295 13.8299 13.75 14.6875 13.75C14.8533 13.75 15.0122 13.8158 15.1294 13.9331C15.2467 14.0503 15.3125 14.2092 15.3125 14.375C15.3125 14.5408 15.2467 14.6997 15.1294 14.8169C15.0122 14.9342 14.8533 15 14.6875 15C13.8638 15.0003 13.0545 14.7835 12.3413 14.3713C11.628 13.9592 11.0361 13.3663 10.625 12.6525V17.5H16.875C17.3723 17.5 17.8492 17.3025 18.2008 16.9508C18.5525 16.5992 18.75 16.1223 18.75 15.625V10.625ZM9.375 17.5V12.6525C8.96394 13.3663 8.37196 13.9592 7.65873 14.3713C6.94551 14.7835 6.13624 15.0003 5.3125 15C5.14674 15 4.98777 14.9342 4.87056 14.8169C4.75335 14.6997 4.6875 14.5408 4.6875 14.375C4.6875 14.2092 4.75335 14.0503 4.87056 13.9331C4.98777 13.8158 5.14674 13.75 5.3125 13.75C6.17004 13.7498 6.99656 13.4292 7.62991 12.8511C8.26325 12.2729 8.65769 11.479 8.73583 10.625H1.25V15.625C1.25 16.1223 1.44754 16.5992 1.79917 16.9508C2.15081 17.3025 2.62772 17.5 3.125 17.5H9.375Z" fill="white"/>
<path d="M9.23748 8.62831C9.26248 8.87581 9.26915 9.10747 9.26748 9.29914C9.04349 9.3012 8.81956 9.29118 8.59664 9.26914C7.90248 9.19914 7.19915 8.99831 6.76748 8.56664C6.53989 8.33078 6.41404 8.01497 6.41704 7.68722C6.42005 7.35948 6.55166 7.04602 6.78353 6.81437C7.0154 6.58272 7.32898 6.4514 7.65672 6.44871C7.98447 6.44602 8.30017 6.57216 8.53581 6.79997C8.96665 7.23081 9.16831 7.93331 9.23748 8.62831ZM10.7308 8.62831C10.7058 8.87581 10.6991 9.10747 10.7008 9.29914C10.8925 9.30081 11.1241 9.29414 11.3716 9.26914C12.0658 9.19914 12.7691 8.99831 13.2008 8.56664C13.4244 8.33011 13.547 8.01568 13.5424 7.69022C13.5378 7.36475 13.4064 7.05391 13.1762 6.8238C12.9459 6.59369 12.635 6.46246 12.3096 6.45801C11.9841 6.45356 11.6697 6.57624 11.4333 6.79997C11.0016 7.23164 10.8 7.93497 10.7308 8.62831Z" fill="white"/>
</svg>
