<svg width="15" height="18" viewBox="0 0 15 18" fill="none" xmlns="http://www.w3.org/2000/svg">
<path d="M1.66667 17.3334C1.20833 17.3334 0.815835 17.17 0.489168 16.8434C0.162501 16.5167 -0.000554141 16.1245 1.41483e-06 15.6667V4.00002H1.66667V15.6667H10.8333V17.3334H1.66667ZM5 14C4.54167 14 4.14917 13.8367 3.8225 13.51C3.49583 13.1834 3.33278 12.7911 3.33333 12.3334V2.33336C3.33333 1.87502 3.49667 1.48252 3.82333 1.15585C4.15 0.829188 4.54222 0.666133 5 0.666688H12.5C12.9583 0.666688 13.3508 0.830022 13.6775 1.15669C14.0042 1.48336 14.1672 1.87558 14.1667 2.33336V12.3334C14.1667 12.7917 14.0033 13.1842 13.6767 13.5109C13.35 13.8375 12.9578 14.0006 12.5 14H5Z" fill="#FF6B00"/>
</svg>
