<svg width="16" height="16" viewBox="0 0 16 16" fill="none" xmlns="http://www.w3.org/2000/svg">
<path d="M4.25 3C3.91848 3 3.60054 3.1317 3.36612 3.36612C3.1317 3.60054 3 3.91848 3 4.25V6.125C3 6.45652 3.1317 6.77446 3.36612 7.00888C3.60054 7.2433 3.91848 7.375 4.25 7.375H6.125C6.45652 7.375 6.77446 7.2433 7.00888 7.00888C7.2433 6.77446 7.375 6.45652 7.375 6.125V4.25C7.375 3.91848 7.2433 3.60054 7.00888 3.36612C6.77446 3.1317 6.45652 3 6.125 3H4.25ZM4.25 8.625C3.91848 8.625 3.60054 8.7567 3.36612 8.99112C3.1317 9.22554 3 9.54348 3 9.875V11.75C3 12.0815 3.1317 12.3995 3.36612 12.6339C3.60054 12.8683 3.91848 13 4.25 13H6.125C6.45652 13 6.77446 12.8683 7.00888 12.6339C7.2433 12.3995 7.375 12.0815 7.375 11.75V9.875C7.375 9.54348 7.2433 9.22554 7.00888 8.99112C6.77446 8.7567 6.45652 8.625 6.125 8.625H4.25ZM9.875 3C9.54348 3 9.22554 3.1317 8.99112 3.36612C8.7567 3.60054 8.625 3.91848 8.625 4.25V6.125C8.625 6.45652 8.7567 6.77446 8.99112 7.00888C9.22554 7.2433 9.54348 7.375 9.875 7.375H11.75C12.0815 7.375 12.3995 7.2433 12.6339 7.00888C12.8683 6.77446 13 6.45652 13 6.125V4.25C13 3.91848 12.8683 3.60054 12.6339 3.36612C12.3995 3.1317 12.0815 3 11.75 3H9.875ZM9.875 8.625C9.54348 8.625 9.22554 8.7567 8.99112 8.99112C8.7567 9.22554 8.625 9.54348 8.625 9.875V11.75C8.625 12.0815 8.7567 12.3995 8.99112 12.6339C9.22554 12.8683 9.54348 13 9.875 13H11.75C12.0815 13 12.3995 12.8683 12.6339 12.6339C12.8683 12.3995 13 12.0815 13 11.75V9.875C13 9.54348 12.8683 9.22554 12.6339 8.99112C12.3995 8.7567 12.0815 8.625 11.75 8.625H9.875ZM0.5 3.625C0.5 2.7962 0.82924 2.00134 1.41529 1.41529C2.00134 0.82924 2.7962 0.5 3.625 0.5H12.375C13.2038 0.5 13.9987 0.82924 14.5847 1.41529C15.1708 2.00134 15.5 2.7962 15.5 3.625V12.375C15.5 13.2038 15.1708 13.9987 14.5847 14.5847C13.9987 15.1708 13.2038 15.5 12.375 15.5H3.625C2.7962 15.5 2.00134 15.1708 1.41529 14.5847C0.82924 13.9987 0.5 13.2038 0.5 12.375V3.625ZM3.625 1.75C3.12772 1.75 2.65081 1.94754 2.29917 2.29917C1.94754 2.65081 1.75 3.12772 1.75 3.625V12.375C1.75 12.8723 1.94754 13.3492 2.29917 13.7008C2.65081 14.0525 3.12772 14.25 3.625 14.25H12.375C12.8723 14.25 13.3492 14.0525 13.7008 13.7008C14.0525 13.3492 14.25 12.8723 14.25 12.375V3.625C14.25 3.12772 14.0525 2.65081 13.7008 2.29917C13.3492 1.94754 12.8723 1.75 12.375 1.75H3.625Z" fill="#CCCCCC"/>
</svg>
