<svg width="16" height="16" viewBox="0 0 16 16" fill="none" xmlns="http://www.w3.org/2000/svg">
<path d="M7.7756 2.34154C7.85394 2.13504 8.14606 2.13504 8.2244 2.34154L9.50187 5.70912C9.53574 5.79839 9.61929 5.85909 9.71465 5.86371L13.3122 6.03802C13.5328 6.04871 13.623 6.32654 13.4509 6.46485L10.6429 8.72044C10.5684 8.78024 10.5365 8.87846 10.5616 8.97058L11.5075 12.4459C11.5655 12.659 11.3292 12.8307 11.1444 12.7097L8.13151 10.7361C8.05164 10.6838 7.94836 10.6838 7.86849 10.7361L4.85558 12.7097C4.67083 12.8307 4.43449 12.659 4.4925 12.4459L5.43841 8.97058C5.46349 8.87846 5.43157 8.78024 5.35714 8.72044L2.54914 6.46485C2.37695 6.32654 2.46722 6.04871 2.68782 6.03802L6.28535 5.86371C6.38071 5.85909 6.46426 5.79839 6.49813 5.70912L7.7756 2.34154Z" fill="white"/>
<rect x="1.22" y="1.22" width="13.56" height="13.56" rx="1.68" stroke="white" stroke-width="1.44"/>
</svg>
